<svg width="152" height="32" viewBox="0 0 152 32" fill="none" xmlns="http://www.w3.org/2000/svg">
<g clip-path="url(#clip0_2_5835)">
<path d="M9.28957 13.5757L15.1891 7.67855L21.0911 13.5805L24.5219 10.1473L15.1891 0.812134L5.85636 10.1449L9.28957 13.5757Z" fill="#A9A9A9"/>
<path d="M-0.001194 16.0006L3.43076 12.5687L6.86271 16.0006L3.43076 19.4326L-0.001194 16.0006Z" fill="#A9A9A9"/>
<path d="M9.28957 18.4244L15.1891 24.3239L21.0911 18.422L24.5243 21.8504L24.5219 21.8528L15.1891 31.188L5.85636 21.8576L5.85157 21.8528L9.28957 18.4244Z" fill="#A9A9A9"/>
<path d="M23.5098 16.0013L26.9417 12.5694L30.3737 16.0013L26.9417 19.4333L23.5098 16.0013Z" fill="#A9A9A9"/>
<path d="M18.6702 15.9988L15.189 12.5153L12.6147 15.0896L12.3172 15.3847L11.7079 15.994L11.7031 15.9988L11.7079 16.006L15.189 19.4848L18.6702 16.0012L18.6726 15.9988H18.6702Z" fill="#A9A9A9"/>
<path d="M35.7284 8.17285H43.1946C45.0467 8.17285 46.4478 8.65268 47.3979 9.61235C47.7559 9.96684 48.038 10.3904 48.2273 10.8572C48.4166 11.3241 48.5091 11.8245 48.4991 12.3282V12.3738C48.5056 12.7864 48.4481 13.1975 48.3288 13.5926C48.2225 13.9326 48.0682 14.2558 47.8706 14.5522C47.6863 14.8318 47.4634 15.0838 47.2084 15.3008C46.9593 15.5152 46.6864 15.7003 46.3951 15.8526C47.2351 16.1452 47.9906 16.6395 48.5951 17.2921C49.1293 17.8999 49.3964 18.7396 49.3964 19.8112V19.8568C49.4116 20.5261 49.266 21.1892 48.9718 21.7905C48.6867 22.3446 48.2688 22.8193 47.7554 23.1724C47.175 23.5616 46.5287 23.842 45.8481 24.0001C45.0394 24.1919 44.2104 24.2846 43.3793 24.2761H35.7284V8.17285ZM42.446 14.6842C43.092 14.7154 43.7348 14.5764 44.3102 14.2811C44.5346 14.1501 44.7178 13.9588 44.839 13.729C44.9603 13.4992 45.0148 13.24 44.9964 12.9808V12.9352C45.0082 12.6964 44.9597 12.4584 44.8553 12.2433C44.7509 12.0282 44.5939 11.8428 44.399 11.7044C44.0007 11.4213 43.4257 11.2798 42.674 11.2798H39.1808V14.6842H42.446ZM43.3889 21.1739C44.0325 21.21 44.6731 21.0627 45.2363 20.7493C45.4557 20.6083 45.6333 20.4111 45.7506 20.1782C45.8679 19.9453 45.9206 19.6852 45.9032 19.4249V19.3794C45.9119 19.132 45.8598 18.8863 45.7514 18.6638C45.6431 18.4413 45.4819 18.2487 45.2819 18.103C44.8692 17.7831 44.2022 17.6232 43.281 17.6232H39.1808V21.1739H43.3889Z" fill="#A9A9A9"/>
<path d="M53.8445 8.17285H57.388V24.2809H53.8445V8.17285Z" fill="#A9A9A9"/>
<path d="M62.7502 8.17285H66.0179L73.5704 18.0862V8.17285H77.0684V24.2809H74.0527L66.253 14.0412V24.2809H62.7502V8.17285Z" fill="#A9A9A9"/>
<path d="M87.7975 8.05774H91.0604L97.9628 24.2809H94.2633L92.7902 20.6678H85.9789L84.5058 24.2809H80.8927L87.7975 8.05774ZM91.5258 17.5392L89.3809 12.3139L87.2457 17.5392H91.5258Z" fill="#A9A9A9"/>
<path d="M101.794 8.17285H105.062L112.61 18.0862V8.17285H116.108V24.2809H113.092L105.292 14.0412V24.2809H101.794V8.17285Z" fill="#A9A9A9"/>
<path d="M128.862 24.5639C127.732 24.5736 126.613 24.3549 125.57 23.921C124.588 23.5156 123.698 22.9179 122.951 22.1631C122.204 21.4082 121.615 20.5115 121.22 19.5257C120.803 18.4945 120.592 17.3918 120.599 16.2796V16.234C120.58 14.0417 121.424 11.9299 122.948 10.3537C123.697 9.58372 124.595 8.9733 125.587 8.5591C126.665 8.11228 127.824 7.88944 128.991 7.90412C129.682 7.89897 130.371 7.96084 131.05 8.08886C131.63 8.19866 132.198 8.3683 132.743 8.59508C133.239 8.80348 133.709 9.06577 134.147 9.37721C134.574 9.68096 134.975 10.0196 135.347 10.3897L133.094 12.9904C132.518 12.4593 131.872 12.0096 131.174 11.654C130.489 11.3262 129.737 11.162 128.977 11.1742C128.344 11.1674 127.718 11.2953 127.139 11.5493C126.56 11.8033 126.041 12.1775 125.618 12.6473C125.198 13.1158 124.87 13.6585 124.649 14.2475C124.418 14.87 124.301 15.5293 124.306 16.1932V16.2388C124.303 16.9019 124.42 17.56 124.649 18.1821C124.867 18.7733 125.192 19.3191 125.608 19.792C126.028 20.2675 126.546 20.6473 127.125 20.9056C127.705 21.1639 128.333 21.2947 128.967 21.2891C129.775 21.3145 130.577 21.1407 131.302 20.7828C131.992 20.4068 132.63 19.9422 133.199 19.4009L135.455 21.6801C135.056 22.1123 134.626 22.5134 134.166 22.8797C133.715 23.2366 133.225 23.5416 132.705 23.789C132.151 24.0496 131.568 24.2422 130.968 24.3624C130.275 24.5014 129.569 24.5689 128.862 24.5639Z" fill="#A9A9A9"/>
<path d="M139.636 8.17285H151.759V11.3254H143.122V14.593H150.728V17.7455H143.134V21.1283H151.879V24.2809H139.643L139.636 8.17285Z" fill="#A9A9A9"/>
</g>
<defs>
<clipPath id="clip0_2_5835">
<rect width="151.877" height="30.3758" fill="white" transform="translate(0 0.812134)"/>
</clipPath>
</defs>
</svg>
