<svg width="126" height="26" viewBox="0 0 126 26" fill="none" xmlns="http://www.w3.org/2000/svg">
<path d="M26.39 16.145C24.6406 23.0836 17.559 27.3249 10.5124 25.5892C3.51351 23.8549 -0.764624 16.8343 0.986157 9.84841C2.73554 2.9098 9.81716 -1.33147 16.8637 0.404226C23.8627 2.13853 28.1408 9.15913 26.39 16.145Z" fill="#A9A9A9"/>
<path d="M19.4561 11.1352C19.7155 9.4009 18.3866 8.46704 16.5727 7.85836L17.1559 5.5126L15.7303 5.15963L15.1472 7.43868L13.9809 7.1816L14.564 4.90254L13.1385 4.54956L12.5553 6.89532L11.6484 6.6702L9.68594 6.18798L9.29766 7.69716L10.335 7.95425C10.5362 7.977 10.7204 8.07736 10.8476 8.23365C10.9748 8.38995 11.0349 8.5896 11.0148 8.78944L10.335 11.4576C10.3672 11.4576 10.4331 11.4896 10.4976 11.4896C10.4653 11.4896 10.3994 11.4576 10.335 11.4576L9.39578 15.1847C9.3313 15.3459 9.13646 15.635 8.74818 15.5377C8.74818 15.5696 7.71088 15.2806 7.71088 15.2806L7.01001 16.9204L8.88835 17.3706L9.92564 17.6277L9.34252 19.9902L10.7681 20.3432L11.3512 17.9974L12.4726 18.2864L11.8895 20.6322L13.3151 20.9852L13.8982 18.6227C16.3611 19.073 18.1735 18.9118 18.9529 16.6953C19.5697 14.9304 18.9207 13.9159 17.624 13.2253C18.5969 13.0307 19.2781 12.422 19.4715 11.1366L19.4561 11.1352ZM16.183 15.7294C15.7289 17.4943 12.7488 16.5327 11.776 16.3076L12.5539 13.16C13.5267 13.3851 16.6372 13.8548 16.1985 15.7308L16.183 15.7294ZM16.6372 11.1352C16.2489 12.7417 13.7216 11.9384 12.9114 11.7133L13.6122 8.85475C14.4225 9.07988 17.0465 9.43286 16.626 11.1338L16.6372 11.1352Z" fill="#F8F8FC"/>
<path d="M38.9629 7.85554C40.0324 7.85554 40.9253 8.05009 41.7173 8.40168C42.4953 8.78661 43.1429 9.26882 43.6293 9.91085C44.148 10.5529 44.504 11.2922 44.7507 12.1593C44.9887 13.0612 45.1084 13.9897 45.1067 14.922C45.1124 16.3875 44.8261 17.8396 44.2643 19.1952C43.7342 20.4995 42.9529 21.689 41.964 22.6971C40.9816 23.6944 39.8159 24.4963 38.5297 25.0596C37.1702 25.6451 35.7016 25.9405 34.2194 25.9267H33.1821C32.6957 25.9267 32.1125 25.8628 31.4649 25.7655L29.424 25.3806C28.7231 25.2194 28.0307 24.9637 27.3831 24.6857L33.119 0.816898L38.2382 0.0136719L36.1972 8.49478C36.6514 8.30023 37.0719 8.14181 37.5261 8.04453C37.9896 7.91287 38.4696 7.84736 38.9517 7.84998L38.9629 7.85554ZM34.6539 21.9273C35.4319 21.9273 36.144 21.7327 36.8266 21.3811C37.5131 20.9967 38.1181 20.4842 38.6082 19.8719C39.0947 19.2605 39.4829 18.5545 39.7745 17.7513C40.0661 16.9481 40.195 16.1449 40.195 15.2777C40.195 14.2174 40.0324 13.4156 39.6764 12.8041C39.3203 12.226 38.6713 11.905 37.7322 11.905C37.4098 11.905 37.0313 11.9689 36.5337 12.0662C36.036 12.1635 35.5945 12.4192 35.2048 12.761L33.0321 21.7563C33.1611 21.7883 33.2914 21.7883 33.3881 21.8203C33.4849 21.8522 33.5844 21.8522 33.7105 21.8842C33.8087 21.8842 33.9699 21.9161 34.0988 21.9161H34.6497L34.6539 21.9273ZM50.4656 25.5404H45.5595L49.6947 8.24464H54.6204L50.4656 25.5404ZM52.8318 6.13791C52.164 6.14673 51.5128 5.93123 50.9843 5.52646C50.4334 5.10956 50.1432 4.49811 50.1432 3.66432C50.1432 3.21407 50.2413 2.7652 50.4348 2.37888C50.6151 1.98279 50.868 1.62328 51.1805 1.31857C51.503 1.03535 51.8628 0.796926 52.2501 0.609838C52.6706 0.448637 53.0911 0.352749 53.5467 0.352749C54.2145 0.343929 54.8656 0.559438 55.3942 0.964201C55.9451 1.3811 56.2352 1.99255 56.2352 2.82635C56.2352 3.2766 56.1371 3.72546 55.9437 4.11179C55.7633 4.50788 55.5105 4.86739 55.1979 5.1721C54.9064 5.46115 54.5181 5.68627 54.1284 5.86693C53.7387 6.04759 53.3182 6.12402 52.8318 6.12402V6.13791ZM58.9238 3.95059L64.0766 3.14736L62.8122 8.25576H68.3211L67.316 12.2858H61.8394L60.3816 18.3253C60.2633 18.7886 60.1873 19.2616 60.1545 19.7385C60.1237 20.1874 60.1867 20.5418 60.3171 20.8503C60.3804 21.0144 60.4761 21.1643 60.5987 21.2912C60.7212 21.4182 60.868 21.5196 61.0306 21.5896C61.3866 21.7508 61.8716 21.8467 62.4884 21.8467C63.0071 21.8467 63.5257 21.7827 64.0303 21.6855C64.5387 21.5909 65.0375 21.4509 65.5204 21.2672L65.8764 25.0262C65.1764 25.2719 64.4621 25.4756 63.7374 25.6363C62.9594 25.8308 62.0525 25.8934 60.9829 25.8934C59.4606 25.8934 58.2916 25.6682 57.4505 25.2194C56.6095 24.7705 56.025 24.1591 55.6703 23.3878C55.3157 22.6165 55.1517 21.7174 55.2161 20.7196C55.2484 19.7233 55.4124 18.6629 55.6703 17.5234L58.9238 3.95059ZM68.094 18.6324C68.0963 17.2003 68.3374 15.7785 68.8075 14.4245C69.2705 13.158 69.9743 11.9914 70.8807 10.9878C71.7876 9.99145 72.8894 9.22296 74.186 8.64208C75.4826 8.06121 76.9082 7.77494 78.4964 7.77494C79.5014 7.77494 80.3747 7.87221 81.1541 8.06399C81.9334 8.25576 82.6441 8.48089 83.2931 8.80329L81.6082 12.6249C81.1541 12.4303 80.7013 12.3052 80.2485 12.1426C79.7621 11.9814 79.179 11.9175 78.4992 11.9175C76.8451 11.9175 75.5835 12.4637 74.6107 13.5879C73.6379 14.7121 73.1529 16.1893 73.1529 18.0848C73.1529 19.1966 73.4122 20.1082 73.8986 20.7836C74.385 21.4784 75.292 21.8119 76.59 21.8119C77.2111 21.8147 77.8306 21.7499 78.4375 21.6187C78.9801 21.5044 79.5115 21.3431 80.0257 21.1365L80.3817 25.0554L78.3408 25.6974C77.595 25.892 76.6867 25.9865 75.6494 25.9865C74.2897 25.9865 73.1221 25.7919 72.1829 25.4084C71.2881 25.0454 70.4815 24.4978 69.8167 23.8019C69.1952 23.1336 68.7401 22.3302 68.4879 21.4562C68.2254 20.5367 68.0947 19.5852 68.0996 18.6296L68.094 18.6324ZM89.8687 25.9767C88.7025 25.9767 87.6652 25.7822 86.8227 25.4626C85.9481 25.1096 85.2346 24.6288 84.6837 23.9853C84.1192 23.3242 83.6898 22.5605 83.4193 21.7369C83.1277 20.8697 82.9988 19.9053 82.9988 18.8783C82.9988 17.5609 83.2259 16.2435 83.6464 14.9275C84.0537 13.6408 84.7024 12.4418 85.5584 11.3936C86.3994 10.3333 87.4367 9.46616 88.6366 8.82274C89.8351 8.14876 91.2298 7.82635 92.8166 7.82635C93.8544 7.82039 94.8853 7.99441 95.8626 8.34053C96.7373 8.6935 97.4508 9.17433 98.0017 9.81774C98.5661 10.4789 98.9955 11.2426 99.266 12.0662C99.5576 12.9334 99.6866 13.8978 99.6866 14.9247C99.6866 16.2421 99.4903 17.5595 99.0698 18.8756C98.6493 20.1916 98.0325 21.3811 97.2223 22.4095C96.4121 23.4698 95.3748 24.305 94.1441 24.9803C92.9133 25.6557 91.4864 25.9767 89.8687 25.9767ZM92.3316 11.9064C91.6456 11.9065 90.9769 12.1199 90.4196 12.5165C89.8687 12.9334 89.4146 13.4475 89.0263 14.091C88.638 14.7344 88.3787 15.4084 88.1852 16.1796C87.9918 16.9509 87.8937 17.6568 87.8937 18.3336C87.8937 19.4259 88.0899 20.2791 88.4123 20.9045C88.7684 21.5159 89.4174 21.8355 90.3243 21.8355C91.07 21.8355 91.684 21.641 92.2363 21.2241C92.7886 20.8072 93.2413 20.293 93.6296 19.6496C94.0179 19.0062 94.2772 18.3322 94.4707 17.5609C94.6598 16.8581 94.7577 16.1343 94.7622 15.407C94.7622 14.3147 94.5996 13.4614 94.2436 12.8361C93.8875 12.2107 93.2385 11.905 92.3316 11.905V11.9064ZM105.036 25.5251H100.13L104.279 8.24186H109.204L105.036 25.5251ZM107.402 6.12263C106.734 6.13145 106.083 5.91594 105.554 5.51118C105.003 5.09428 104.713 4.48283 104.713 3.64903C104.713 3.19878 104.811 2.74992 105.005 2.36359C105.185 1.9675 105.438 1.60799 105.751 1.30328C106.073 1.02006 106.433 0.78164 106.82 0.594552C107.241 0.433352 107.661 0.337463 108.117 0.337463C108.784 0.328643 109.436 0.544152 109.964 0.948915C110.515 1.36581 110.805 1.97727 110.805 2.81106C110.805 3.26131 110.707 3.71017 110.514 4.0965C110.333 4.49259 110.08 4.8521 109.768 5.15681C109.445 5.44003 109.086 5.67845 108.698 5.86554C108.309 6.06009 107.888 6.12263 107.402 6.12263ZM112.745 9.01312L113.976 8.62819L115.498 8.24325C116.118 8.1058 116.746 8.00924 117.378 7.9542L119.744 7.82635C122.337 7.82635 124.118 8.56565 125.09 10.0748C126.063 11.552 126.257 13.6087 125.609 16.1782L123.341 25.4945H118.415L120.588 16.3714L120.91 14.701C120.975 14.1549 120.975 13.7046 120.878 13.2877C120.798 12.8936 120.58 12.5405 120.261 12.2913C119.936 12.0343 119.451 11.9064 118.771 11.9064C118.124 11.9064 117.475 11.9703 116.827 12.101L113.603 25.4653H108.677L112.745 9.01312Z" fill="#A9A9A9"/>
</svg>
