<svg width="141" height="26" viewBox="0 0 141 26" fill="none" xmlns="http://www.w3.org/2000/svg">
<path d="M28.5707 7.53377C23.4937 7.53377 19.5287 11.3549 19.5287 16.469C19.5287 21.5832 23.3947 25.3697 28.5707 25.3697C33.7468 25.3697 37.6769 21.5197 37.6769 16.4402C37.6769 11.3896 33.8108 7.53377 28.5707 7.53377ZM28.6057 21.6871C25.712 21.6871 23.5985 19.459 23.5985 16.469C23.5985 13.4502 25.677 11.2222 28.5707 11.2222C31.4936 11.2222 33.6129 13.4848 33.6129 16.4748C33.6129 19.459 31.4936 21.6871 28.6057 21.6871ZM38.7889 11.4242H41.31V25.0464H45.3449V7.86278H38.7889V11.4242ZM9.3745 11.2222C11.4938 11.2222 13.1765 12.5151 13.8111 14.443H18.0847C17.3103 10.3275 13.881 7.53377 9.40943 7.53377C4.33235 7.53377 0.36734 11.3549 0.36734 16.469C0.36734 21.5889 4.23337 25.3755 9.40943 25.3755C13.7762 25.3755 17.2754 22.5817 18.0498 18.4316H13.8111C13.5365 19.3762 12.9577 20.2058 12.1629 20.7936C11.368 21.3815 10.401 21.6952 9.40943 21.6871C6.48662 21.6871 4.43133 19.459 4.43133 16.469C4.43133 13.4502 6.45168 11.2222 9.38032 11.2222H9.3745ZM115.428 14.8124L112.471 14.3795C111.062 14.1775 110.054 13.7157 110.054 12.619C110.054 11.4242 111.364 10.8297 113.14 10.8297C115.096 10.8297 116.342 11.6551 116.604 13.0173H120.505C120.069 9.55979 117.379 7.53377 113.245 7.53377C108.977 7.53377 106.153 9.69832 106.153 12.7518C106.153 15.6725 107.999 17.3695 111.731 17.9005L114.689 18.3334C116.139 18.5297 116.942 19.0954 116.942 20.1574C116.942 21.5197 115.533 22.0853 113.583 22.0853C111.196 22.0853 109.851 21.1214 109.647 19.661H105.682C106.054 23.0147 108.709 25.3755 113.542 25.3755C117.949 25.3755 120.878 23.3783 120.878 19.9612C120.878 16.902 118.759 15.3088 115.428 14.8124ZM43.3245 0.791905C42.9853 0.780076 42.6472 0.836926 42.3308 0.95898C42.0145 1.08103 41.7266 1.26573 41.4846 1.50179C41.2427 1.73786 41.0518 2.02033 40.9237 2.33197C40.7956 2.6436 40.7329 2.97786 40.7394 3.31433C40.7394 4.78045 41.8457 5.84253 43.3245 5.84253C43.6648 5.8552 44.004 5.79878 44.3214 5.67673C44.6389 5.55469 44.9278 5.36959 45.1704 5.13282C45.4131 4.89605 45.6043 4.6126 45.7325 4.29989C45.8606 3.98717 45.9229 3.65178 45.9155 3.31433C45.9221 2.97736 45.8592 2.64261 45.7307 2.33057C45.6022 2.01853 45.4108 1.73578 45.1683 1.49963C44.9257 1.26349 44.6371 1.07891 44.32 0.957218C44.003 0.835525 43.6643 0.779272 43.3245 0.791905ZM102.52 13.7504C102.52 10.0273 100.238 7.53954 95.3937 7.53954C90.8232 7.53954 88.2672 9.83108 87.7664 13.3521H91.7664C91.9702 11.9899 93.0473 10.8585 95.3297 10.8585C97.3791 10.8585 98.3864 11.7532 98.3864 12.8499C98.3864 14.2814 96.5407 14.645 94.2525 14.8759C91.1609 15.2107 87.3239 16.2728 87.3239 20.2613C87.3239 23.3494 89.6529 25.3408 93.3442 25.3408C96.2379 25.3408 98.0545 24.146 98.9628 22.2527C99.0967 23.944 100.372 25.0407 102.153 25.0407H104.506V21.485H102.526V13.7504H102.52ZM98.5611 18.0679C98.5611 20.3595 96.5407 22.0507 94.0837 22.0507C92.5699 22.0507 91.2889 21.4158 91.2889 20.0882C91.2889 18.3969 93.3442 17.9352 95.2248 17.7331C97.0414 17.5715 98.0487 17.1732 98.5552 16.4056L98.5611 18.0679ZM77.1407 7.53377C74.8932 7.53377 73.0068 8.46885 71.6677 10.0273V0.624512H67.6328V25.0407H71.592V22.7838C72.9428 24.4115 74.8525 25.3755 77.1407 25.3755C81.9849 25.3755 85.6471 21.5889 85.6471 16.469C85.6471 11.3549 81.9208 7.53377 77.1465 7.53377H77.1407ZM76.541 21.6871C73.6473 21.6871 71.5338 19.459 71.5338 16.469C71.5338 13.4848 73.6822 11.2222 76.5701 11.2222C79.4987 11.2222 81.5482 13.4502 81.5482 16.4748C81.5482 19.459 79.4288 21.6871 76.541 21.6871ZM57.9852 7.53377C55.3651 7.53377 53.6475 8.59584 52.6345 10.0908V7.86855H48.6345V25.0407H52.6694V15.7071C52.6694 13.0808 54.352 11.2222 56.8382 11.2222C59.1555 11.2222 60.6052 12.8499 60.6052 15.2049V25.0407H64.6343V14.9106C64.6343 10.593 62.3869 7.53377 57.9852 7.53377ZM140.103 15.9034C140.103 10.9913 136.47 7.53377 131.603 7.53377C126.421 7.53377 122.625 11.3896 122.625 16.469C122.625 21.8198 126.689 25.3755 131.667 25.3755C135.871 25.3755 139.16 22.9165 140.004 19.4302H135.801C135.195 20.954 133.716 21.8198 131.731 21.8198C129.14 21.8198 127.189 20.2267 126.759 17.433H140.103V15.9091V15.9034ZM126.992 14.5758C127.632 12.1861 129.449 11.0259 131.533 11.0259C133.815 11.0259 135.568 12.3189 135.97 14.5758H126.992Z" fill="#A9A9A9"/>
</svg>
