<svg width="124" height="34" viewBox="0 0 124 34" fill="none" xmlns="http://www.w3.org/2000/svg">
<path d="M17.2003 33.579C26.4363 33.579 33.9235 26.1563 33.9235 17C33.9235 7.84369 26.4363 0.421021 17.2003 0.421021C7.96438 0.421021 0.477173 7.84369 0.477173 17C0.477173 26.1563 7.96438 33.579 17.2003 33.579Z" fill="#A9A9A9"/>
<path d="M18.9816 18.53V18.5273C18.8659 18.5353 18.2691 18.57 16.9409 18.57C15.8789 18.57 15.1342 18.5406 14.8707 18.5273V18.53C10.7867 18.3514 7.74048 17.6477 7.74048 16.8028C7.74048 15.9605 10.7894 15.2542 14.8707 15.0756V17.829C15.1368 17.8476 15.9031 17.8929 16.9597 17.8929C18.2287 17.8929 18.8633 17.8396 18.9816 17.829V15.0782C23.0575 15.2595 26.0956 15.9632 26.0956 16.8054C26.0956 17.6477 23.0548 18.3514 18.9816 18.5326V18.53ZM18.9816 14.793V12.3302H24.668V8.57458H9.18695V12.3302H14.8734V14.793C10.2516 15.0036 6.77795 15.9099 6.77795 16.9974C6.77795 18.0848 10.2543 18.9911 14.8734 19.2043V27.0993H18.9842V19.2043C23.5979 18.9938 27.0662 18.0875 27.0662 17C27.0662 15.9152 23.5979 15.0063 18.9842 14.7957" fill="#F8F8FC"/>
<path d="M48.127 9.60078V13.5829H52.0308V16.5709H48.1001V22.6295C48.1001 23.9675 48.8448 24.6205 49.9364 24.6205C50.4822 24.6205 51.114 24.45 51.6302 24.1941L52.6062 27.1527C51.6033 27.5499 50.7699 27.7205 49.7079 27.7498C46.6375 27.8644 44.6291 26.1292 44.6291 22.6295V16.5709H41.9889V13.5829H44.6291V9.97127L48.127 9.60078ZM115.431 13.3964L115.689 15.017C116.781 13.2818 118.243 13.0259 119.679 13.0259C121.141 13.0259 122.548 13.5936 123.322 14.3613L121.744 17.3759C121.026 16.7788 120.367 16.4643 119.219 16.4643C117.383 16.4643 115.689 17.4318 115.689 20.02V27.4166H112.188V13.391L115.431 13.3964ZM106.852 18.7726C106.623 16.9521 105.187 16.0405 103.179 16.0405C101.286 16.0405 99.7348 16.9521 99.2186 18.7726H106.852ZM99.1621 21.6459C99.3906 23.3811 100.912 24.6339 103.381 24.6339C104.671 24.6339 106.365 24.1488 107.169 23.3251L109.406 25.5161C107.914 27.0514 105.475 27.7924 103.321 27.7924C98.4442 27.7924 95.5432 24.8045 95.5432 20.3105C95.5432 16.0432 98.4711 12.9699 103.063 12.9699C107.798 12.9699 110.755 15.8726 110.21 21.6459H99.1621ZM83.7241 7.50574V15.2995C84.9878 13.6789 86.5364 13.1938 88.1442 13.1938C92.161 13.1938 93.9408 15.8966 93.9408 20.0227V27.4193H90.4403V20.052C90.4403 17.4905 89.0906 16.411 87.2247 16.411C85.1572 16.411 83.7241 18.1462 83.7241 20.2519V27.4219H80.2236V7.5084L83.7241 7.50574ZM74.4269 9.44085V13.423H78.3308V16.411H74.4V22.4695C74.4 23.8076 75.1475 24.4606 76.2364 24.4606C76.7821 24.4606 77.414 24.29 77.9302 24.0341L78.9061 26.9928C77.9033 27.3899 77.0698 27.5605 76.0078 27.5899C72.9374 27.7045 70.9291 25.9666 70.9291 22.4695V16.411H68.2888V13.423H70.9291V9.81135L74.4269 9.44085ZM64.756 18.7726C64.5275 16.9521 63.0918 16.0405 61.0834 16.0405C59.1906 16.0405 57.6393 16.9521 57.1231 18.7726H64.756ZM57.0666 21.6459C57.2951 23.3811 58.8169 24.6339 61.285 24.6339C62.5756 24.6339 64.2694 24.1488 65.0733 23.3251L67.3102 25.5161C65.818 27.0514 63.3794 27.7924 61.2259 27.7924C56.3461 27.7924 53.4477 24.8045 53.4477 20.3105C53.4477 16.0432 56.3756 12.9699 60.9651 12.9699C65.6997 12.9699 68.6545 15.8726 68.1114 21.6459H57.0666Z" fill="#A9A9A9"/>
</svg>
